<?xml version="1.0" standalone="yes"?>
<svg xmlns="http://www.w3.org/2000/svg" width="512" height="512">
<path style="fill:#f9fbfe; stroke:none;" d="M0 0L0 233L1 233C3.80276 116.812 116.811 3.8031 233 1L208 0L160 0L0 0z"/>
<path style="fill:#76c8fb; stroke:none;" d="M240 0L240 1L248 1L240 0z"/>
<path style="fill:#239ff2; stroke:none;" d="M35 385C51.4688 379.874 62.7761 372.071 81 373.097C116.166 375.076 141.444 409.315 138.84 443C137.85 455.805 131.011 465.295 127 477C172.717 499.535 216.729 512 268 512L268 511L256 511L256 510L260 509L260 508L256 508L259 506L259 505L256 505L258 503C251.667 489.65 256 466.65 256 452L256 332L213 332C208.595 332 200.35 333.514 196.918 330.082C191.483 324.647 195 304.334 195 297L195 212C195 205.161 191.809 187.028 196.918 181.918C200.35 178.486 208.595 180 213 180L256 180L256 7L260 7L260 6L256 5L256 4L262 4L262 3L257 3C253.287 -0.85791 248.915 0.48877 244 0.84726C233.65 1.60211 223.201 2.06247 213 4.11023C168.826 12.9776 127.627 30.114 92.8453 59.3454C24.3019 116.951 -10.5094 207.39 3.4838 296C8.52718 327.937 20.8315 356.256 35 385z"/>
<path style="fill:#2988cc; stroke:none;" d="M256 0L257 3L262 3L262 4L256 4L256 5L260 6L260 7L256 7L256 180C268.948 180 282.499 180.233 294 186.977C319.503 201.932 321.438 233.956 305 256C321.561 278.688 319.364 310.67 293 325.545C281.783 331.874 268.525 332 256 332L256 464L256 495C256 498.565 255.347 504.557 259 505L259 506L256 508L260 508L260 509L256 510L256 511C324.815 509.255 387.205 485.797 437.008 436.945C515.582 359.87 539.264 220.029 476 126C438.206 152.025 384.235 135.025 374.059 88C369.574 67.2773 378.638 53.5488 385 35C356.199 18.7414 325.641 8.12003 293 2.92212C280.716 0.965912 268.183 2.09961 256 0z"/>
<path style="fill:#239ff2; stroke:none;" d="M258 0L258 1L268 1L258 0z"/>
<path style="fill:#76c8fb; stroke:none;" d="M268 0L268 1L274 1L268 0z"/>
<path style="fill:#f9fbfe; stroke:none;" d="M279 0L279 1C303.798 1.32016 330.196 9.19919 353 18.5114C362.255 22.2908 375.13 32.7775 384.947 33.31C392.386 33.7136 402.903 20.2794 410 16.987C434.395 5.66974 463.79 10.9111 482.639 30.248C501.205 49.2935 506.101 77.8914 495.01 102C491.73 109.128 478.285 119.592 478.69 127.053C479.235 137.095 489.968 150.458 493.776 160C502.865 182.776 510.405 208.319 511 233L512 233L512 0L279 0z"/>
<path style="fill:#76c8fb; stroke:none;" d="M229 1L229 2L235 2L229 1M280 1L280 2L284 2L280 1M220 2L220 3L224 3L220 2M290.667 2.33334L291.333 2.66666L290.667 2.33334M214.667 3.33334L215.333 3.66666L214.667 3.33334z"/>
<path style="fill:#239ff2; stroke:none;" d="M272 3L272 4L278 4L272 3z"/>
<path style="fill:#76c8fb; stroke:none;" d="M296 3L296 4L299 4L296 3M208 4L208 5L212 5L208 4z"/>
<path style="fill:#239ff2; stroke:none;" d="M302 4L303 5L302 4z"/>
<path style="fill:#76c8fb; stroke:none;" d="M303 4L304 5L303 4M203 5L203 6L206 6L203 5z"/>
<path style="fill:#239ff2; stroke:none;" d="M264 5L264 6L269 6L264 5M271 5L272 6L271 5M277 5L277 6L280 6L280 7L275 7L275 8L287 8L287 7L277 5M307 5L308 6L307 5z"/>
<path style="fill:#76c8fb; stroke:none;" d="M308 5L309 6L308 5M198 6L198 7L202 7L198 6z"/>
<path style="fill:#239ff2; stroke:none;" d="M298.667 6.33334L299.333 6.66666L298.667 6.33334z"/>
<path style="fill:#76c8fb; stroke:none;" d="M312.667 6.33334L313.333 6.66666L312.667 6.33334M194 7L194 8L197 8L194 7z"/>
<path style="fill:#239ff2; stroke:none;" d="M264.667 7.33334L265.333 7.66666L264.667 7.33334M267 7L268 8L267 7z"/>
<path style="fill:#76c8fb; stroke:none;" d="M317 7L318 8L317 7M190.667 8.33334L191.333 8.66666L190.667 8.33334M320.667 8.33334L321.333 8.66666L320.667 8.33334M187.667 9.33334L188.333 9.66666L187.667 9.33334M324.667 9.33334L325.333 9.66666L324.667 9.33334M184 10L185 11L184 10M328 10L329 11L328 10M180.667 11.3333L181.333 11.6667L180.667 11.3333z"/>
<path style="fill:#239ff2; stroke:none;" d="M322.667 11.3333L323.333 11.6667L322.667 11.3333z"/>
<path style="fill:#76c8fb; stroke:none;" d="M331.667 11.3333L332.333 11.6667L331.667 11.3333M177.667 12.3333L178.333 12.6667L177.667 12.3333z"/>
<path style="fill:#239ff2; stroke:none;" d="M320 12L321 13L320 12M326 12L324 14L324 15L332 14L326 12z"/>
<path style="fill:#76c8fb; stroke:none;" d="M334.667 12.3333L335.333 12.6667L334.667 12.3333M385 35C383.669 41.7114 378.877 47.4934 376.62 54C371.931 67.5125 371.802 83.5973 377.013 97C395.874 145.516 460.781 152.837 489.925 110C515.093 73.0069 491.783 18.5239 447 12.3864C432.848 10.4469 417.276 12.6042 405 20.1271C397.868 24.4977 392.259 30.9584 385 35M174.667 13.3333L175.333 13.6667L174.667 13.3333z"/>
<path style="fill:#239ff2; stroke:none;" d="M305 13L306 14L305 13z"/>
<path style="fill:#76c8fb; stroke:none;" d="M337.667 13.3333L338.333 13.6667L337.667 13.3333M171.667 14.3333L172.333 14.6667L171.667 14.3333M340.667 14.3333L341.333 14.6667L340.667 14.3333M168.667 15.3333L169.333 15.6667L168.667 15.3333z"/>
<path style="fill:#239ff2; stroke:none;" d="M329.667 15.3333L330.333 15.6667L329.667 15.3333M333.667 15.3333L334.333 15.6667L333.667 15.3333z"/>
<path style="fill:#76c8fb; stroke:none;" d="M343 15L344 16L343 15M158 19L158 20L167 17L158 19M346 16L347 17L346 16M348.667 17.3333L349.333 17.6667L348.667 17.3333z"/>
<path style="fill:#239ff2; stroke:none;" d="M344 18L345 19L344 18M350 18L351 19L350 18z"/>
<path style="fill:#76c8fb; stroke:none;" d="M351 18L352 19L351 18M353 19L354 20L353 19M151 22L151 23L157 21L151 22z"/>
<path style="fill:#239ff2; stroke:none;" d="M344 20L345 21L344 20M355 20L356 21L355 20z"/>
<path style="fill:#76c8fb; stroke:none;" d="M356 20L357 21L356 20z"/>
<path style="fill:#239ff2; stroke:none;" d="M347 23L350 21L347 23M352 21L352 22L354 22L354 23L351 23L351 24L355 23L355 22L352 21M357 21L358 22L357 21z"/>
<path style="fill:#76c8fb; stroke:none;" d="M358 21L359 22L358 21z"/>
<path style="fill:#239ff2; stroke:none;" d="M344 22L345 23L344 22z"/>
<path style="fill:#76c8fb; stroke:none;" d="M360 22L361 23L360 22M149 23L150 24L149 23z"/>
<path style="fill:#239ff2; stroke:none;" d="M356 23L357 24L356 23z"/>
<path style="fill:#76c8fb; stroke:none;" d="M147 24L148 25L147 24M365 24L366 25L365 24M144.667 25.3333L145.333 25.6667L144.667 25.3333z"/>
<path style="fill:#239ff2; stroke:none;" d="M357 25L358 26L357 25M366 25L367 26L366 25z"/>
<path style="fill:#76c8fb; stroke:none;" d="M367 25L368 26L367 25M141 28L144 27L141 28z"/>
<path style="fill:#239ff2; stroke:none;" d="M360 26L365 31L360 26z"/>
<path style="fill:#76c8fb; stroke:none;" d="M369 26L370 27L369 26z"/>
<path style="fill:#239ff2; stroke:none;" d="M364 27L366 29L366 27L364 27M370 27L371 28L370 27z"/>
<path style="fill:#76c8fb; stroke:none;" d="M371 27L372 28L371 27M139 28L140 29L139 28z"/>
<path style="fill:#239ff2; stroke:none;" d="M338.667 28.3333L339.333 28.6667L338.667 28.3333M367 29L367 30L372 31L372 30L369 28L367 29M372 28L373 29L372 28z"/>
<path style="fill:#76c8fb; stroke:none;" d="M373 28L374 29L373 28M137 29L138 30L137 29z"/>
<path style="fill:#239ff2; stroke:none;" d="M374 29L375 30L374 29z"/>
<path style="fill:#76c8fb; stroke:none;" d="M375 29L376 30L375 29M135 30L136 31L135 30z"/>
<path style="fill:#239ff2; stroke:none;" d="M360 30L361 31L360 30M376 30L377 31L376 30z"/>
<path style="fill:#76c8fb; stroke:none;" d="M377 30L378 31L377 30M133 31L134 32L133 31z"/>
<path style="fill:#239ff2; stroke:none;" d="M373 31L374 32L373 31M378 31L379 32L378 31z"/>
<path style="fill:#76c8fb; stroke:none;" d="M131 32L132 33L131 32M380 32L381 33L380 32M129 33L123 37L123 38L129 33z"/>
<path style="fill:#239ff2; stroke:none;" d="M376.667 33.3333L377.333 33.6667L376.667 33.3333z"/>
<path style="fill:#76c8fb; stroke:none;" d="M382 33L383 34L382 33z"/>
<path style="fill:#239ff2; stroke:none;" d="M377 35L378 36L377 35M380.667 35.3333L381.333 35.6667L380.667 35.3333M383 36L384 37L383 36M385 36L386 37L385 36M377 38L377 39L382 38L377 38M384.333 37.6667L384.667 38.3333L384.333 37.6667z"/>
<path style="fill:#76c8fb; stroke:none;" d="M121 38L122 39L121 38z"/>
<path style="fill:#239ff2; stroke:none;" d="M383 39L384 40L383 39z"/>
<path style="fill:#76c8fb; stroke:none;" d="M118 40L115 42L115 43L119 41L118 40z"/>
<path style="fill:#239ff2; stroke:none;" d="M377 40L376 41L377 45L378 45L377 40M380 40L381 41L380 40M382 41L383 42L382 41M381.333 42.6667L381.667 43.3333L381.333 42.6667z"/>
<path style="fill:#76c8fb; stroke:none;" d="M113 43L108 48L113 43z"/>
<path style="fill:#239ff2; stroke:none;" d="M380 44L381 45L380 44M376 46L377 47L376 46M379 46L380 47L379 46M378 47L378 50L379 50L378 47z"/>
<path style="fill:#76c8fb; stroke:none;" d="M106 48L99 53L99 54L106 48z"/>
<path style="fill:#239ff2; stroke:none;" d="M377.333 50.6667L377.667 51.3333L377.333 50.6667M376 53L377 54L376 53z"/>
<path style="fill:#76c8fb; stroke:none;" d="M98 54L97 56L98 54z"/>
<path style="fill:#239ff2; stroke:none;" d="M375.333 56.6667L375.667 57.3333L375.333 56.6667z"/>
<path style="fill:#76c8fb; stroke:none;" d="M89 63L96 58L89 63z"/>
<path style="fill:#239ff2; stroke:none;" d="M372 57L372 60L373 60L372 57M369.333 59.6667L369.667 60.3333L369.333 59.6667M374 59L374 62L375 62L374 59M371 61L372 62L371 61z"/>
<path style="fill:#76c8fb; stroke:none;" d="M87 63L80 71L87 63z"/>
<path style="fill:#239ff2; stroke:none;" d="M373 63L373 69L374 69L373 63M370 65L370 72L371 72L370 65M368 67L368 72L369 72L368 67z"/>
<path style="fill:#76c8fb; stroke:none;" d="M77.3333 72.6667L77.6667 73.3333L77.3333 72.6667M74 76L72 77L72 78L74 76M70 80L63 88L70 80z"/>
<path style="fill:#239ff2; stroke:none;" d="M373 80L373 86L374 86L373 80M369 81L370 89L371 89L372 84L371 84L371 88L370 88L369 81M374 88L374 91L375 91L374 88z"/>
<path style="fill:#76c8fb; stroke:none;" d="M62 89L57 96L58 96L62 89z"/>
<path style="fill:#239ff2; stroke:none;" d="M368 89L369 90L368 89M371 90L372 93L373 93L373 90L371 90M369 92L372 96L369 92M375.333 92.6667L375.667 93.3333L375.333 92.6667M373.333 94.6667L373.667 95.3333L373.333 94.6667M368 95L369 96L368 95M376 96L377 97L376 96z"/>
<path style="fill:#76c8fb; stroke:none;" d="M55 97L54 99L55 97z"/>
<path style="fill:#239ff2; stroke:none;" d="M377.333 98.6667L377.667 99.3333L377.333 98.6667z"/>
<path style="fill:#76c8fb; stroke:none;" d="M53 99L48 107L53 99z"/>
<path style="fill:#239ff2; stroke:none;" d="M378.333 100.667L378.667 101.333L378.333 100.667M379.333 102.667L379.667 103.333L379.333 102.667M376 104L377 110L378 110L379 107L376 104M380.333 104.667L380.667 105.333L380.333 104.667M381.333 106.667L381.667 107.333L381.333 106.667z"/>
<path style="fill:#76c8fb; stroke:none;" d="M47 108L43 114L47 108z"/>
<path style="fill:#239ff2; stroke:none;" d="M382 108L383 109L382 108M383 110L384 111L383 110M376 111L377 112L376 111M379 111L380 112L379 111M384 111L385 112L384 111M385 113L386 114L385 113M386 114L387 115L386 114z"/>
<path style="fill:#76c8fb; stroke:none;" d="M42 115L40 119L41 119L42 115z"/>
<path style="fill:#239ff2; stroke:none;" d="M387 115L388 116L387 115M388 116L389 117L388 116M386 118L388 120L386 118M389 118L390 119L389 118M384 119L385 120L384 119M390 119L391 120L390 119z"/>
<path style="fill:#76c8fb; stroke:none;" d="M38 121L39 122L38 121z"/>
<path style="fill:#239ff2; stroke:none;" d="M392 121L393 122L392 121M393.667 122.333L394.333 122.667L393.667 122.333z"/>
<path style="fill:#76c8fb; stroke:none;" d="M37 123L35 127L36 127L37 123z"/>
<path style="fill:#239ff2; stroke:none;" d="M395 123L396 124L395 123M396 124L397 125L396 124M393 125L394 126L393 125M397 125L398 126L397 125M398 126L399 127L398 126M474 126L473 128L475 128L474 126M476 126L477 127L476 126M392 127L393 128L392 127M400 127L401 128L400 127z"/>
<path style="fill:#76c8fb; stroke:none;" d="M34 128L32 132L33 132L34 128z"/>
<path style="fill:#239ff2; stroke:none;" d="M401 128L402 129L401 128M472 128L473 129L472 128M475 128L476 129L475 128M403 129L404 130L403 129M470 129L471 130L470 129z"/>
<path style="fill:#76c8fb; stroke:none;" d="M478 129L479 130L478 129z"/>
<path style="fill:#239ff2; stroke:none;" d="M404.667 130.333L405.333 130.667L404.667 130.333M468.667 130.333L469.333 130.667L468.667 130.333M474 130L473 135L474 135L476 133L476 132L474 130M401 131L402 132L401 131M406.667 131.333L407.333 131.667L406.667 131.333M467 131L468 132L467 131M471 131L472 132L471 131z"/>
<path style="fill:#76c8fb; stroke:none;" d="M479 131L480 132L479 131z"/>
<path style="fill:#239ff2; stroke:none;" d="M408.667 132.333L409.333 132.667L408.667 132.333M465 132L466 133L465 132z"/>
<path style="fill:#76c8fb; stroke:none;" d="M31 133L32 134L31 133z"/>
<path style="fill:#239ff2; stroke:none;" d="M404 133L405 134L404 133M410 133L411 134L410 133M462.667 133.333L463.333 133.667L462.667 133.333M468 133L468 135L470 133L468 133z"/>
<path style="fill:#76c8fb; stroke:none;" d="M480 133L481 134L480 133z"/>
<path style="fill:#239ff2; stroke:none;" d="M413 134L414 135L413 134M460.667 134.333L461.333 134.667L460.667 134.333M471 134L472 135L471 134M476.333 134.667L476.667 135.333L476.333 134.667z"/>
<path style="fill:#76c8fb; stroke:none;" d="M481 134L482 135L481 134M30 135L31 136L30 135z"/>
<path style="fill:#239ff2; stroke:none;" d="M405 135L405 136L408 136L405 135M409.667 135.333L410.333 135.667L409.667 135.333M415 135L416 136L415 135M458 135L459 136L458 135M464 135L464 136L467 136L464 135M481 135L482 136L481 135M418.667 136.333L419.333 136.667L418.667 136.333M454.667 136.333L455.333 136.667L454.667 136.333z"/>
<path style="fill:#76c8fb; stroke:none;" d="M482 136L483 137L482 136M29 137L26 144L27 144L29 137z"/>
<path style="fill:#239ff2; stroke:none;" d="M421 137L421 138L424 138L421 137M450.667 137.333L451.333 137.667L450.667 137.333M482 137L483 138L482 137M416.667 138.333L417.333 138.667L416.667 138.333M427 138L427 139L431 139L427 138M443 138L443 139L447 139L443 138M480.333 138.667L480.667 139.333L480.333 138.667z"/>
<path style="fill:#76c8fb; stroke:none;" d="M483 138L484 139L483 138z"/>
<path style="fill:#239ff2; stroke:none;" d="M421 139L422 140L421 139M461 139L462 140L461 139M483 139L484 140L483 139M426 140L427 141L426 140M454.667 140.333L455.333 140.667L454.667 140.333z"/>
<path style="fill:#76c8fb; stroke:none;" d="M484 140L485 141L484 140z"/>
<path style="fill:#239ff2; stroke:none;" d="M416 141L416 142L420 142L416 141M450.667 141.333L451.333 141.667L450.667 141.333M482 141L482 146L483 146L482 141M484 141L485 142L484 141M431 142L432 143L431 142M451 143L451 144L456 143L451 143M474.667 142.333L475.333 142.667L474.667 142.333z"/>
<path style="fill:#76c8fb; stroke:none;" d="M485 142L486 143L485 142M25 144L24 148L25 148L25 144M486 144L487 145L486 144z"/>
<path style="fill:#239ff2; stroke:none;" d="M486 145L487 146L486 145M484.333 146.667L484.667 147.333L484.333 146.667z"/>
<path style="fill:#76c8fb; stroke:none;" d="M487 146L488 147L487 146z"/>
<path style="fill:#239ff2; stroke:none;" d="M481 147L482 148L481 147M487 147L488 148L487 147z"/>
<path style="fill:#76c8fb; stroke:none;" d="M23 149L24 150L23 149z"/>
<path style="fill:#239ff2; stroke:none;" d="M482 149L486 152L482 149z"/>
<path style="fill:#76c8fb; stroke:none;" d="M488 149L489 150L488 149M22 151L20 157L21 157L22 151z"/>
<path style="fill:#239ff2; stroke:none;" d="M481 151L480 155L481 155L481 151z"/>
<path style="fill:#76c8fb; stroke:none;" d="M489 151L490 152L489 151z"/>
<path style="fill:#239ff2; stroke:none;" d="M486 153L487 154L486 153z"/>
<path style="fill:#76c8fb; stroke:none;" d="M490 153L491 154L490 153z"/>
<path style="fill:#239ff2; stroke:none;" d="M490 154L491 155L490 154z"/>
<path style="fill:#76c8fb; stroke:none;" d="M491 155L492 156L491 155z"/>
<path style="fill:#239ff2; stroke:none;" d="M491 156L492 157L491 156M489 157L491 160L489 157z"/>
<path style="fill:#76c8fb; stroke:none;" d="M19 158L18 162L19 162L19 158M492 158L493 159L492 158z"/>
<path style="fill:#239ff2; stroke:none;" d="M488 160L489 161L488 160z"/>
<path style="fill:#76c8fb; stroke:none;" d="M493 160L494 161L493 160z"/>
<path style="fill:#239ff2; stroke:none;" d="M493 161L494 162L493 161z"/>
<path style="fill:#76c8fb; stroke:none;" d="M494.333 162.667L494.667 163.333L494.333 162.667M17 163L16 167L17 167L17 163z"/>
<path style="fill:#239ff2; stroke:none;" d="M488 163L488 166L489 166L488 163M490 163L491 164L490 163M492 165L489 167L489 168L493 170L494 167L492 168L492 165z"/>
<path style="fill:#76c8fb; stroke:none;" d="M495 165L496 166L495 165z"/>
<path style="fill:#239ff2; stroke:none;" d="M483 167L483 170L484 170L483 167z"/>
<path style="fill:#76c8fb; stroke:none;" d="M15.3333 168.667L15.6667 169.333L15.3333 168.667M496 168L497 169L496 168M14.3333 171.667L14.6667 172.333L14.3333 171.667M497 171L498 172L497 171M13.3333 174.667L13.6667 175.333L13.3333 174.667z"/>
<path style="fill:#239ff2; stroke:none;" d="M487.333 174.667L487.667 175.333L487.333 174.667z"/>
<path style="fill:#76c8fb; stroke:none;" d="M498 174L499 175L498 174z"/>
<path style="fill:#239ff2; stroke:none;" d="M272.667 176.333L273.333 176.667L272.667 176.333M277 176L278 177L277 176M287 176L285 181L290 181L290 180L287 176z"/>
<path style="fill:#76c8fb; stroke:none;" d="M499.333 176.667L499.667 177.333L499.333 176.667M12.3333 177.667L12.6667 178.333L12.3333 177.667z"/>
<path style="fill:#239ff2; stroke:none;" d="M276 178L276 179L282 178L281 180L282 180L283 178L276 178M497 179L498 180L497 179z"/>
<path style="fill:#76c8fb; stroke:none;" d="M11.3333 180.667L11.6667 181.333L11.3333 180.667M272 332L272 331L196 331L196 181L272 181C255.846 175.973 232.92 180 216 180C211.145 180 200.888 178.084 196.918 181.361C191.442 185.881 195 208.247 195 215L195 300C195 306.924 191.821 324.581 196.361 330.082C199.671 334.092 211.331 332 216 332L272 332M500 180L501 181L500 180z"/>
<path style="fill:#f9fbfe; stroke:none;" d="M197.918 182.361C194.276 185.368 196 194.812 196 199L196 246L196 305C196 311.287 193.785 322.817 196.918 328.414C199.953 333.837 217.583 331 223 331C246.848 331 280.407 335.845 299.97 319.497C313.912 307.847 317 288.72 312.393 272C310.965 266.819 306.467 262.195 305.699 257C304.93 251.798 310.539 245.805 312.235 241C315.572 231.545 315.865 219.358 311.961 210.002C297.932 176.382 259.281 181 229 181C221.891 181 203.553 177.71 197.918 182.361z"/>
<path style="fill:#76c8fb; stroke:none;" d="M278.667 181.333L279.333 181.667L278.667 181.333z"/>
<path style="fill:#239ff2; stroke:none;" d="M500 181L501 182L500 181z"/>
<path style="fill:#76c8fb; stroke:none;" d="M282.667 182.333L283.333 182.667L282.667 182.333z"/>
<path style="fill:#239ff2; stroke:none;" d="M284 182L285 183L284 182z"/>
<path style="fill:#76c8fb; stroke:none;" d="M286 183L287 184L286 183z"/>
<path style="fill:#239ff2; stroke:none;" d="M497 183L500 186L497 183z"/>
<path style="fill:#76c8fb; stroke:none;" d="M501 183L502 184L501 183M10.3333 184.667L10.6667 185.333L10.3333 184.667M289 184L290 185L289 184z"/>
<path style="fill:#239ff2; stroke:none;" d="M294 184L297 186L297 185L294 184M302 184L302 187L303 187L302 184z"/>
<path style="fill:#76c8fb; stroke:none;" d="M291 185L291 186L295 188L295 187L291 185z"/>
<path style="fill:#239ff2; stroke:none;" d="M299 185L298 187L299 185z"/>
<path style="fill:#76c8fb; stroke:none;" d="M502.333 186.667L502.667 187.333L502.333 186.667M9.33333 187.667L9.66667 188.333L9.33333 187.667z"/>
<path style="fill:#f9fbfe; stroke:none;" d="M291 187L290 188L291 187z"/>
<path style="fill:#239ff2; stroke:none;" d="M295 187L296 188L295 187M300.333 187.667L300.667 188.333L300.333 187.667z"/>
<path style="fill:#76c8fb; stroke:none;" d="M296 188L298 190L296 188z"/>
<path style="fill:#239ff2; stroke:none;" d="M303 188L304 189L303 188M500.333 188.667L500.667 189.333L500.333 188.667M298 189L300 191L298 189z"/>
<path style="fill:#76c8fb; stroke:none;" d="M8.33333 190.667L8.66667 191.333L8.33333 190.667M503.333 190.667L503.667 191.333L503.333 190.667M300 191L306 197L300 191z"/>
<path style="fill:#239ff2; stroke:none;" d="M306 192L309 194L309 193L306 192M311 193L312 194L311 193z"/>
<path style="fill:#76c8fb; stroke:none;" d="M7 194L7 197L8 197L7 194M504 194L505 195L504 194z"/>
<path style="fill:#f9fbfe; stroke:none;" d="M301 195L300 196L301 195z"/>
<path style="fill:#239ff2; stroke:none;" d="M310 195L311 198L308 196L311 199L310 195M306 197L307 198L306 197z"/>
<path style="fill:#76c8fb; stroke:none;" d="M6.33333 198.667L6.66667 199.333L6.33333 198.667z"/>
<path style="fill:#f9fbfe; stroke:none;" d="M305 198L304 199L305 198z"/>
<path style="fill:#76c8fb; stroke:none;" d="M505.333 198.667L505.667 199.333L505.333 198.667M307 199L309 201L307 199z"/>
<path style="fill:#239ff2; stroke:none;" d="M309 201L310 202L309 201z"/>
<path style="fill:#76c8fb; stroke:none;" d="M309 202L311 204L309 202z"/>
<path style="fill:#239ff2; stroke:none;" d="M319.333 202.667L319.667 203.333L319.333 202.667z"/>
<path style="fill:#76c8fb; stroke:none;" d="M5 203L5 206L6 206L5 203z"/>
<path style="fill:#239ff2; stroke:none;" d="M314 203L317 206L314 203z"/>
<path style="fill:#76c8fb; stroke:none;" d="M506 203L507 204L506 203z"/>
<path style="fill:#239ff2; stroke:none;" d="M506 204L507 205L506 204z"/>
<path style="fill:#76c8fb; stroke:none;" d="M311 205L312 206L311 205M4 208L4 212L5 212L4 208z"/>
<path style="fill:#239ff2; stroke:none;" d="M505 208L506 209L505 208z"/>
<path style="fill:#76c8fb; stroke:none;" d="M507.333 208.667L507.667 209.333L507.333 208.667z"/>
<path style="fill:#f9fbfe; stroke:none;" d="M277 209C277 211.436 277.786 210.615 280 210L286 216C286.486 219.977 287.689 223.977 287.002 228C283.953 245.851 262.117 242 249 242C243.741 242 231.029 244.278 226.824 240.598C223.065 237.309 223.083 213.439 227.586 210.918C233.109 207.827 243.808 210.173 250 209.947C258.93 209.62 268.107 209.668 277 209z"/>
<path style="fill:#239ff2; stroke:none;" d="M501 209L500 212L501 212L501 209z"/>
<path style="fill:#76c8fb; stroke:none;" d="M313 210L314 211L313 210M226.333 211.667L226.667 212.333L226.333 211.667z"/>
<path style="fill:#239ff2; stroke:none;" d="M256 241L258 215C253.586 210.617 233.498 207.211 227.63 211.889C224.439 214.432 224.261 237.584 227.458 240.069C232.597 244.063 249.613 241 256 241z"/>
<path style="fill:#2988cc; stroke:none;" d="M256 211L258 215C253.998 222.106 256 233.06 256 241C263.483 241 272.342 242.222 278.886 237.812C288.358 231.43 287.332 217.574 276.966 212.741C270.738 209.836 262.691 211 256 211z"/>
<path style="fill:#239ff2; stroke:none;" d="M274 211L275 212L274 211z"/>
<path style="fill:#76c8fb; stroke:none;" d="M275 211L276 212L275 211z"/>
<path style="fill:#f9fbfe; stroke:none;" d="M279 211L280 212L279 211z"/>
<path style="fill:#239ff2; stroke:none;" d="M317.667 211.333L318.333 211.667L317.667 211.333z"/>
<path style="fill:#76c8fb; stroke:none;" d="M277 212L277 213L282 216L277 212z"/>
<path style="fill:#239ff2; stroke:none;" d="M504 212L504 216L505 216L504 212M271 213L271 214L274 214L271 213z"/>
<path style="fill:#76c8fb; stroke:none;" d="M314 213L315 214L314 213M508 213L508 216L509 216L508 213M3.33333 214.667L3.66667 215.333L3.33333 214.667z"/>
<path style="fill:#239ff2; stroke:none;" d="M275.667 214.333L276.333 214.667L275.667 214.333M317 214L318 215L317 214M259 215L260 216L259 215M261 215L262 216L261 215M263 215L264 216L263 215M265 215L266 216L265 215M267 215L268 216L267 215M269 215L270 216L269 215M272 215L273 216L272 215z"/>
<path style="fill:#76c8fb; stroke:none;" d="M315 216L315 220L316 220L315 216z"/>
<path style="fill:#239ff2; stroke:none;" d="M318 216L319 217L318 216z"/>
<path style="fill:#76c8fb; stroke:none;" d="M283 217L284 220L285 220L283 217z"/>
<path style="fill:#239ff2; stroke:none;" d="M500 219L500 224L502 224L502 219L500 219z"/>
<path style="fill:#76c8fb; stroke:none;" d="M2 220L2 224L3 224L2 220z"/>
<path style="fill:#239ff2; stroke:none;" d="M282 220L283 224L280 223L280 224L280 225L283 226L282 220M319 220L320 221L319 220z"/>
<path style="fill:#76c8fb; stroke:none;" d="M509.333 220.667L509.667 221.333L509.333 220.667M285 221L286 222L285 221z"/>
<path style="fill:#239ff2; stroke:none;" d="M504.333 221.667L504.667 222.333L504.333 221.667M506 221L505 225L506 225L506 221M276 222L277 223L276 222M285 222L286 223L285 222M509 222L510 223L509 222M319 224L319 227L320 227L319 224z"/>
<path style="fill:#76c8fb; stroke:none;" d="M1 228L1 234L2 234L1 228z"/>
<path style="fill:#239ff2; stroke:none;" d="M276 228L275 230L276 228M281 228L282 229L281 228z"/>
<path style="fill:#76c8fb; stroke:none;" d="M510 228L510 231L511 231L510 228M285.333 229.667L285.667 230.333L285.333 229.667z"/>
<path style="fill:#239ff2; stroke:none;" d="M504.333 230.667L504.667 231.333L504.333 230.667M280 231L272 237L272 238L281 234L280 231z"/>
<path style="fill:#76c8fb; stroke:none;" d="M284 232L285 233L284 232M315 232L315 235L316 235L315 232z"/>
<path style="fill:#239ff2; stroke:none;" d="M319 232L320 233L319 232M272 235L275 234L272 235M283 233L284 234L283 233M508 233L508 240L507 240L506 235L505 235L507 247L508 247L508 233z"/>
<path style="fill:#76c8fb; stroke:none;" d="M283 234L277 239L277 240L283 234z"/>
<path style="fill:#239ff2; stroke:none;" d="M499 235L499 239L500 239L499 235z"/>
<path style="fill:#f9fbfe; stroke:none;" d="M286 236L284 238L286 236z"/>
<path style="fill:#76c8fb; stroke:none;" d="M314.333 237.667L314.667 238.333L314.333 237.667z"/>
<path style="fill:#239ff2; stroke:none;" d="M319 237L320 238L319 237M275 238L276 239L275 238M317.333 238.667L317.667 239.333L317.333 238.667z"/>
<path style="fill:#76c8fb; stroke:none;" d="M511 238L511 244L512 244L511 238z"/>
<path style="fill:#239ff2; stroke:none;" d="M276 239L277 240L276 239z"/>
<path style="fill:#76c8fb; stroke:none;" d="M0 240L0 248L1 248L0 240M226 240L227 241L226 240M230 240L231 241L230 240M273.667 240.333L274.333 240.667L273.667 240.333M313.333 240.667L313.667 241.333L313.333 240.667z"/>
<path style="fill:#239ff2; stroke:none;" d="M316 241L315 244L317 246L318 246L316 241z"/>
<path style="fill:#76c8fb; stroke:none;" d="M312 243L313 244L312 243z"/>
<path style="fill:#239ff2; stroke:none;" d="M319 243L319 246L320 246L319 243M312 244L313 245L312 244M511 244L511 255L512 255L511 244z"/>
<path style="fill:#76c8fb; stroke:none;" d="M311 245L312 246L311 245z"/>
<path style="fill:#239ff2; stroke:none;" d="M314 245L313 247L314 245M505.333 245.667L505.667 246.333L505.333 245.667M311 246L312 247L311 246z"/>
<path style="fill:#76c8fb; stroke:none;" d="M310 247L311 248L310 247z"/>
<path style="fill:#239ff2; stroke:none;" d="M315 247L316 248L315 247M318 247L319 248L318 247z"/>
<path style="fill:#f9fbfe; stroke:none;" d="M307 248L306 249L307 248z"/>
<path style="fill:#239ff2; stroke:none;" d="M310 248L311 249L310 248z"/>
<path style="fill:#76c8fb; stroke:none;" d="M309 249L306 254L309 249z"/>
<path style="fill:#239ff2; stroke:none;" d="M508 251L509 252L508 251M310 252L311 253L310 252M306 254L307 255L306 254z"/>
<path style="fill:#76c8fb; stroke:none;" d="M305 255L306 256L305 255z"/>
<path style="fill:#239ff2; stroke:none;" d="M308 255L308 257L310 257L308 255M509.333 256.667L509.667 257.333L509.333 256.667M511 256L511 268L512 268L511 256M306 257L307 258L306 257M311 257L312 258L311 257z"/>
<path style="fill:#76c8fb; stroke:none;" d="M306 258L309 263L310 263L306 258z"/>
<path style="fill:#239ff2; stroke:none;" d="M313 259L313 262L314 262L313 259M508 260L509 261L508 260z"/>
<path style="fill:#f9fbfe; stroke:none;" d="M307 263L306 264L307 263z"/>
<path style="fill:#239ff2; stroke:none;" d="M310 263L311 264L310 263z"/>
<path style="fill:#76c8fb; stroke:none;" d="M0 264L0 272L1 272L0 264M310 264L311 265L310 264z"/>
<path style="fill:#239ff2; stroke:none;" d="M315 264L316 265L315 264M505 264L505 269L506 269L505 264M507 264L507 268L508 268L507 264M311 265L312 266L311 265z"/>
<path style="fill:#76c8fb; stroke:none;" d="M311 266L312 267L311 266z"/>
<path style="fill:#239ff2; stroke:none;" d="M317 266L317 269L318 269L317 266M312 267L313 268L312 267z"/>
<path style="fill:#76c8fb; stroke:none;" d="M312 268L313 269L312 268z"/>
<path style="fill:#239ff2; stroke:none;" d="M315 268L317 274L318 274L315 268z"/>
<path style="fill:#76c8fb; stroke:none;" d="M511 268L511 274L512 274L511 268z"/>
<path style="fill:#f9fbfe; stroke:none;" d="M280 271L286.667 281L286 296L280 302C277.05 301.017 276.378 300.513 277 303C265.526 302.139 253.522 302.001 242 302C237.936 302 230.281 303.415 226.918 300.639C223.088 297.477 223.068 273.536 227.491 270.978C231.373 268.734 238.687 270.001 243 270C255.32 269.998 267.769 269.37 280 271z"/>
<path style="fill:#76c8fb; stroke:none;" d="M313.333 270.667L313.667 271.333L313.333 270.667z"/>
<path style="fill:#239ff2; stroke:none;" d="M507 270L508 271L507 270z"/>
<path style="fill:#76c8fb; stroke:none;" d="M226 271L227 272L226 271z"/>
<path style="fill:#239ff2; stroke:none;" d="M256 271C248.903 271 234.521 268.229 228.352 271.998C224.904 274.104 226.001 280.626 226 284C225.999 288.14 224.64 295.647 227.476 299.082C230.427 302.657 252.574 302.905 255.33 299.082C259.175 293.75 256 277.575 256 271z"/>
<path style="fill:#76c8fb; stroke:none;" d="M230 271L231 272L230 271z"/>
<path style="fill:#2988cc; stroke:none;" d="M256 271L256 301C262.691 301 270.738 302.164 276.966 299.259C287.934 294.145 288.143 279.518 277.965 273.431C271.675 269.67 263.026 271 256 271z"/>
<path style="fill:#76c8fb; stroke:none;" d="M274 271L275 272L274 271M277 272L278 273L277 272z"/>
<path style="fill:#239ff2; stroke:none;" d="M504.333 272.667L504.667 273.333L504.333 272.667M506 272L507 273L506 272M508 272L508 276L509 276L508 272M278 273L279 274L278 273z"/>
<path style="fill:#76c8fb; stroke:none;" d="M279 273L284 278L279 273z"/>
<path style="fill:#f9fbfe; stroke:none;" d="M284 273L283 274L284 273z"/>
<path style="fill:#76c8fb; stroke:none;" d="M314.333 273.667L314.667 274.333L314.333 273.667z"/>
<path style="fill:#239ff2; stroke:none;" d="M499 273L499 277L500 277L499 273M272 274L273 275L272 274M275 274L276 275L275 274M274 276L275 277L274 276M276 279L280 277L276 279z"/>
<path style="fill:#76c8fb; stroke:none;" d="M1 277L1 283L2 283L1 277M315 277L315 280L316 280L315 277z"/>
<path style="fill:#239ff2; stroke:none;" d="M508 277L509 278L508 277M272 278L273 279L272 278z"/>
<path style="fill:#f9fbfe; stroke:none;" d="M0 279L0 512L233 512L233 511C207.457 510.384 180.335 502.592 157 492.537C145.928 487.767 135.424 480.747 124 477C119.383 483.05 113.477 487.818 107 491.791C54.2119 524.163 -11.9352 461.135 18.9635 407C23.0992 399.754 28.3799 393.083 35 388L11.6832 334L0 279z"/>
<path style="fill:#239ff2; stroke:none;" d="M281 279L280 281L281 279z"/>
<path style="fill:#76c8fb; stroke:none;" d="M284 279L285 280L284 279z"/>
<path style="fill:#239ff2; stroke:none;" d="M319 279L320 280L319 279z"/>
<path style="fill:#f9fbfe; stroke:none;" d="M511 279C508.196 395.208 395.196 508.197 279 511L279 512L512 512L512 352L512 304L511 279z"/>
<path style="fill:#239ff2; stroke:none;" d="M504 280L504 283L505 283L504 280M510 280L511 281L510 280M282 281L280 290L283 288L282 292L283 292L282 281z"/>
<path style="fill:#76c8fb; stroke:none;" d="M285.333 281.667L285.667 282.333L285.333 281.667M510 281L510 284L511 284L510 281z"/>
<path style="fill:#239ff2; stroke:none;" d="M283.333 283.667L283.667 284.333L283.333 283.667M319 287L320 288L319 287M505 287L506 290L507 290L505 287z"/>
<path style="fill:#76c8fb; stroke:none;" d="M2 288L2 292L3 292L2 288z"/>
<path style="fill:#239ff2; stroke:none;" d="M500 288L500 291L502 288L500 288M275 289L276 290L275 289M285 289L286 290L285 289M509 289L510 290L509 289z"/>
<path style="fill:#76c8fb; stroke:none;" d="M285 290L286 291L285 290M509.333 290.667L509.667 291.333L509.333 290.667z"/>
<path style="fill:#239ff2; stroke:none;" d="M319 291L320 292L319 291z"/>
<path style="fill:#76c8fb; stroke:none;" d="M284 292L283 295L284 292M315 292L315 296L316 296L315 292z"/>
<path style="fill:#239ff2; stroke:none;" d="M278 294L279 295L278 294M318 295L320 297L318 295z"/>
<path style="fill:#76c8fb; stroke:none;" d="M3.33333 296.667L3.66667 297.333L3.33333 296.667z"/>
<path style="fill:#239ff2; stroke:none;" d="M272 296L272 297L274 297L274 298L271 298L271 299L276 298L276 297L272 296z"/>
<path style="fill:#76c8fb; stroke:none;" d="M281 296L279 299L281 296M508 296L508 299L509 299L508 296M314 298L315 299L314 298M226.333 299.667L226.667 300.333L226.333 299.667M277 299L278 300L277 299z"/>
<path style="fill:#239ff2; stroke:none;" d="M274 300L275 301L274 300z"/>
<path style="fill:#76c8fb; stroke:none;" d="M275 300L276 301L275 300z"/>
<path style="fill:#239ff2; stroke:none;" d="M500 300L502 303L500 300z"/>
<path style="fill:#76c8fb; stroke:none;" d="M4 301L4 304L5 304L4 301M313 301L314 302L313 301z"/>
<path style="fill:#239ff2; stroke:none;" d="M315 302L314 309C316.491 306.665 316.494 305.016 315 302z"/>
<path style="fill:#76c8fb; stroke:none;" d="M507.333 302.667L507.667 303.333L507.333 302.667z"/>
<path style="fill:#239ff2; stroke:none;" d="M499 305L500 306L499 305z"/>
<path style="fill:#76c8fb; stroke:none;" d="M5 306L5 309L6 309L5 306M311 306L312 307L311 306z"/>
<path style="fill:#239ff2; stroke:none;" d="M506 307L507 308L506 307z"/>
<path style="fill:#76c8fb; stroke:none;" d="M310 308L309 310L310 308M506 308L507 309L506 308z"/>
<path style="fill:#239ff2; stroke:none;" d="M319 309L320 310L319 309M309 310L310 311L309 310z"/>
<path style="fill:#76c8fb; stroke:none;" d="M308 311L307 313L308 311M6.33333 312.667L6.66667 313.333L6.33333 312.667z"/>
<path style="fill:#239ff2; stroke:none;" d="M310 312L308 316L311 314L310 317L311 317L310 312z"/>
<path style="fill:#76c8fb; stroke:none;" d="M505.333 312.667L505.667 313.333L505.333 312.667z"/>
<path style="fill:#239ff2; stroke:none;" d="M306 314L307 315L306 314z"/>
<path style="fill:#76c8fb; stroke:none;" d="M7 315L7 318L8 318L7 315M305 315L300 321L305 315z"/>
<path style="fill:#f9fbfe; stroke:none;" d="M301 316L300 317L301 316z"/>
<path style="fill:#239ff2; stroke:none;" d="M504 316L505 317L504 316M307 317L305 319L305 320L310 320L309 317L307 317z"/>
<path style="fill:#76c8fb; stroke:none;" d="M504 317L505 318L504 317M8.33333 320.667L8.66667 321.333L8.33333 320.667M503.333 320.667L503.667 321.333L503.333 320.667M298 321L296 324L298 321z"/>
<path style="fill:#239ff2; stroke:none;" d="M299 321L300 322L299 321z"/>
<path style="fill:#f9fbfe; stroke:none;" d="M289 322L288 323L289 322z"/>
<path style="fill:#239ff2; stroke:none;" d="M303 322L298 328L303 325L302 328L303 328L303 322M497 322L497 325L498 325L497 322M500 322L500 325L501 325L500 322z"/>
<path style="fill:#76c8fb; stroke:none;" d="M9.33333 323.667L9.66667 324.333L9.33333 323.667z"/>
<path style="fill:#f9fbfe; stroke:none;" d="M291 324L290 325L291 324z"/>
<path style="fill:#76c8fb; stroke:none;" d="M294 324L291 326L291 327L295 325L294 324z"/>
<path style="fill:#239ff2; stroke:none;" d="M295 324L296 325L295 324z"/>
<path style="fill:#76c8fb; stroke:none;" d="M502.333 324.667L502.667 325.333L502.333 324.667M10.3333 326.667L10.6667 327.333L10.3333 326.667z"/>
<path style="fill:#239ff2; stroke:none;" d="M295 326L296 327L295 326M499 326L498 328L500 328L499 326z"/>
<path style="fill:#76c8fb; stroke:none;" d="M288.667 327.333L289.333 327.667L288.667 327.333M286 328L287 329L286 328M501 328L502 329L501 328M282.667 329.333L283.333 329.667L282.667 329.333z"/>
<path style="fill:#239ff2; stroke:none;" d="M284 329L285 330L284 329M497 329L499 331L497 329z"/>
<path style="fill:#76c8fb; stroke:none;" d="M11.3333 330.667L11.6667 331.333L11.3333 330.667M277 330L277 331L280 331L277 330z"/>
<path style="fill:#239ff2; stroke:none;" d="M285 331L288 336L285 331z"/>
<path style="fill:#76c8fb; stroke:none;" d="M500 331L501 332L500 331M12.3333 333.667L12.6667 334.333L12.3333 333.667z"/>
<path style="fill:#239ff2; stroke:none;" d="M276 333L276 334L283 334L276 333z"/>
<path style="fill:#76c8fb; stroke:none;" d="M499.333 334.667L499.667 335.333L499.333 334.667z"/>
<path style="fill:#239ff2; stroke:none;" d="M273 335L274 336L273 335z"/>
<path style="fill:#76c8fb; stroke:none;" d="M13.3333 336.667L13.6667 337.333L13.3333 336.667z"/>
<path style="fill:#239ff2; stroke:none;" d="M483 337L482 339L483 337z"/>
<path style="fill:#76c8fb; stroke:none;" d="M498 337L499 338L498 337M14.3333 339.667L14.6667 340.333L14.3333 339.667M497 340L498 341L497 340M15.3333 342.667L15.6667 343.333L15.3333 342.667M496 343L497 344L496 343z"/>
<path style="fill:#239ff2; stroke:none;" d="M491.333 344.667L491.667 345.333L491.333 344.667M493 344L494 345L493 344z"/>
<path style="fill:#76c8fb; stroke:none;" d="M16 345L17 349L18 349L16 345z"/>
<path style="fill:#239ff2; stroke:none;" d="M488 346L491 349L491 348L488 346z"/>
<path style="fill:#76c8fb; stroke:none;" d="M495 346L496 347L495 346M494.333 348.667L494.667 349.333L494.333 348.667M18 350L20 356L21 356L18 350z"/>
<path style="fill:#239ff2; stroke:none;" d="M493 350L494 351L493 350z"/>
<path style="fill:#76c8fb; stroke:none;" d="M493 351L494 352L493 351z"/>
<path style="fill:#239ff2; stroke:none;" d="M482 352L482 354L484 354L484 352L482 352M488 352L489 353L488 352M490 352L491 353L490 352z"/>
<path style="fill:#76c8fb; stroke:none;" d="M492 353L493 354L492 353z"/>
<path style="fill:#239ff2; stroke:none;" d="M489 354L490 355L489 354M491 355L492 356L491 355z"/>
<path style="fill:#76c8fb; stroke:none;" d="M491 356L492 357L491 356M21 357L22 361L23 361L21 357z"/>
<path style="fill:#239ff2; stroke:none;" d="M490 357L491 358L490 357z"/>
<path style="fill:#76c8fb; stroke:none;" d="M490 358L491 359L490 358z"/>
<path style="fill:#239ff2; stroke:none;" d="M481 360L482 361L481 360M481 365L486 360L481 365z"/>
<path style="fill:#76c8fb; stroke:none;" d="M489 360L490 361L489 360M23 362L24 363L23 362z"/>
<path style="fill:#239ff2; stroke:none;" d="M488 362L489 363L488 362z"/>
<path style="fill:#76c8fb; stroke:none;" d="M24 364L25 365L24 364z"/>
<path style="fill:#239ff2; stroke:none;" d="M484.333 364.667L484.667 365.333L484.333 364.667z"/>
<path style="fill:#76c8fb; stroke:none;" d="M487 365L488 366L487 365M25.3333 366.667L25.6667 367.333L25.3333 366.667z"/>
<path style="fill:#239ff2; stroke:none;" d="M480.333 366.667L480.667 367.333L480.333 366.667M482 366L482 371L483 371L482 366M486 366L487 367L486 366z"/>
<path style="fill:#76c8fb; stroke:none;" d="M486 367L487 368L486 367M26 368L28 371L26 368z"/>
<path style="fill:#239ff2; stroke:none;" d="M485 368L486 369L485 368z"/>
<path style="fill:#76c8fb; stroke:none;" d="M485 369L486 370L485 369z"/>
<path style="fill:#239ff2; stroke:none;" d="M484 370L485 371L484 370z"/>
<path style="fill:#76c8fb; stroke:none;" d="M484 371L485 372L484 371M28 372L29 373L28 372z"/>
<path style="fill:#239ff2; stroke:none;" d="M480.333 372.667L480.667 373.333L480.333 372.667M483 372L484 373L483 372z"/>
<path style="fill:#76c8fb; stroke:none;" d="M65 373L65 374L72 374L65 373M79 373L79 374L86 374L79 373M483 373L484 374L483 373M29 374L30 375L29 374M60 374L60 375L63 375L60 374M87 374L87 375L94 376L87 374z"/>
<path style="fill:#239ff2; stroke:none;" d="M482 374L483 375L482 374z"/>
<path style="fill:#76c8fb; stroke:none;" d="M56 375L56 376L59 376L56 375M482 375L483 376L482 375M30 376L31 377L30 376M40 384L55 377C49.2347 376.648 43.9325 380.034 40 384M95 376L95 377C114.669 384.09 130.808 400.577 136 421L137 421C133.193 400.105 115.379 381.497 95 376z"/>
<path style="fill:#239ff2; stroke:none;" d="M474 376L475 377L474 376M477 376L472 389L473 389L476 383L474 384L474 383L477 376M481 376L482 377L481 376z"/>
<path style="fill:#76c8fb; stroke:none;" d="M481 377L482 378L481 377M31 378L32 379L31 378M480 378L481 379L480 378M32 380L33 383L34 383L32 380M479 380L480 381L479 380M478 382L479 383L478 382M34 383L35 384L34 383M35 385L35 386L39 385L35 385z"/>
<path style="fill:#239ff2; stroke:none;" d="M466 384L466 386L468 386L468 384L466 384z"/>
<path style="fill:#76c8fb; stroke:none;" d="M476 385L477 386L476 385M475 387L476 388L475 387z"/>
<path style="fill:#239ff2; stroke:none;" d="M474 388L475 389L474 388M470.333 389.667L470.667 390.333L470.333 389.667z"/>
<path style="fill:#76c8fb; stroke:none;" d="M474 389L473 391L474 389z"/>
<path style="fill:#239ff2; stroke:none;" d="M466 392L466 393L466 398L467 398L466 392z"/>
<path style="fill:#76c8fb; stroke:none;" d="M472 392L473 393L472 392z"/>
<path style="fill:#239ff2; stroke:none;" d="M471 393L472 394L471 393M465 394L466 395L465 394z"/>
<path style="fill:#76c8fb; stroke:none;" d="M470 395L471 396L470 395z"/>
<path style="fill:#239ff2; stroke:none;" d="M469 396L470 397L469 396z"/>
<path style="fill:#76c8fb; stroke:none;" d="M468 398L469 399L468 398z"/>
<path style="fill:#239ff2; stroke:none;" d="M454 400L458 402L454 400M464 400L465 401L464 400M461 401L462 402L461 401z"/>
<path style="fill:#76c8fb; stroke:none;" d="M466 401L465 403L466 401z"/>
<path style="fill:#239ff2; stroke:none;" d="M459 402L458 404L460 404L459 402z"/>
<path style="fill:#76c8fb; stroke:none;" d="M464 404L465 405L464 404z"/>
<path style="fill:#239ff2; stroke:none;" d="M457 405L458 406L457 405M460 405L458 408L460 405z"/>
<path style="fill:#76c8fb; stroke:none;" d="M463 405L464 406L463 405z"/>
<path style="fill:#239ff2; stroke:none;" d="M462 406L463 407L462 406M456 407L458 410L456 407z"/>
<path style="fill:#76c8fb; stroke:none;" d="M461 408L460 410L461 408z"/>
<path style="fill:#239ff2; stroke:none;" d="M453 410L453 412L455 410L453 410z"/>
<path style="fill:#76c8fb; stroke:none;" d="M458 412L456 415L458 412z"/>
<path style="fill:#239ff2; stroke:none;" d="M449 416L448 421L453 416L449 416z"/>
<path style="fill:#76c8fb; stroke:none;" d="M454 417L453 419L454 417z"/>
<path style="fill:#239ff2; stroke:none;" d="M452 419L451 421L452 419z"/>
<path style="fill:#76c8fb; stroke:none;" d="M137 422L137 425L138 425L137 422M450 422L451 423L450 422M449 423L450 424L449 423z"/>
<path style="fill:#239ff2; stroke:none;" d="M441 427L442 427L445 426L441 427z"/>
<path style="fill:#76c8fb; stroke:none;" d="M448 424L447 426L448 424M138 426L138 432L139 432L138 426z"/>
<path style="fill:#239ff2; stroke:none;" d="M446 426L445 428L446 426M435 432L432 435L432 436L432 437L437 432L435 432z"/>
<path style="fill:#76c8fb; stroke:none;" d="M138 433L139 434L138 433z"/>
<path style="fill:#239ff2; stroke:none;" d="M433 433L434 434L433 433z"/>
<path style="fill:#76c8fb; stroke:none;" d="M439 434L440 435L439 434M438 435L439 436L438 435M437 436L438 437L437 436M436 437L437 438L436 437M435 438L436 439L435 438M434 439L435 440L434 439M138 440L138 447L139 447L138 440z"/>
<path style="fill:#239ff2; stroke:none;" d="M427 440L428 441L427 440M425 441L427 444L425 441M430 442L431 443L430 442z"/>
<path style="fill:#76c8fb; stroke:none;" d="M427 445L423 450L427 445z"/>
<path style="fill:#239ff2; stroke:none;" d="M404 448L405 449L404 448M417 448L418 449L417 448z"/>
<path style="fill:#76c8fb; stroke:none;" d="M137 449L137 452L138 452L137 449z"/>
<path style="fill:#239ff2; stroke:none;" d="M419 449L420 450L419 449z"/>
<path style="fill:#76c8fb; stroke:none;" d="M422 450L423 451L422 450z"/>
<path style="fill:#239ff2; stroke:none;" d="M417 451L418 452L417 451M420 451L421 452L420 451z"/>
<path style="fill:#76c8fb; stroke:none;" d="M419 452L417 455L419 452M136 453L136 456L137 456L136 453z"/>
<path style="fill:#239ff2; stroke:none;" d="M400 454L400 459L403 457L403 456L400 454M408 456L405 461L411 458L411 457L408 456z"/>
<path style="fill:#76c8fb; stroke:none;" d="M414 456L412 459L414 456M135 457L126 477L127 477L135 457z"/>
<path style="fill:#239ff2; stroke:none;" d="M405 457L406 458L405 457M403 458L402 460L404 460L403 458z"/>
<path style="fill:#76c8fb; stroke:none;" d="M409 460L408 462L409 460z"/>
<path style="fill:#239ff2; stroke:none;" d="M401 461L402 462L401 461M406 462L407 463L406 462z"/>
<path style="fill:#76c8fb; stroke:none;" d="M405 463L406 464L405 463z"/>
<path style="fill:#239ff2; stroke:none;" d="M373 466L376 465L373 466M392 464L392 465L397 467L397 464L392 464M400 464L399 466L400 464z"/>
<path style="fill:#76c8fb; stroke:none;" d="M404 464L405 465L404 464M402 465L401 467L402 465z"/>
<path style="fill:#239ff2; stroke:none;" d="M392 467L395 469L395 468L392 467z"/>
<path style="fill:#76c8fb; stroke:none;" d="M398 468L399 469L398 468z"/>
<path style="fill:#239ff2; stroke:none;" d="M389 469L390 470L389 469M396 469L397 470L396 469z"/>
<path style="fill:#76c8fb; stroke:none;" d="M397 469L398 470L397 469M395 470L396 471L395 470z"/>
<path style="fill:#239ff2; stroke:none;" d="M393 471L394 472L393 471M377 473L379 475L376 476L376 477L385 473L383 476L387 474L387 473L380 472L377 473z"/>
<path style="fill:#76c8fb; stroke:none;" d="M392 472L393 473L392 472M390 473L389 475L390 473M387 475L388 476L387 475M385 476L386 477L385 476M128 477L128 478L132 480L132 479L128 477M382 478L383 479L382 478M380 479L381 480L380 479M133 480L134 481L133 480z"/>
<path style="fill:#239ff2; stroke:none;" d="M373 480L374 481L373 480z"/>
<path style="fill:#76c8fb; stroke:none;" d="M378 480L379 481L378 480M135 481L136 482L135 481z"/>
<path style="fill:#239ff2; stroke:none;" d="M360 481L361 482L360 481M356 486L356 487L366 485L369 484L369 481L356 486M371 481L372 482L371 481M376 481L377 482L376 481z"/>
<path style="fill:#76c8fb; stroke:none;" d="M377 481L378 482L377 481M137 482L138 483L137 482z"/>
<path style="fill:#239ff2; stroke:none;" d="M374 482L375 483L374 482z"/>
<path style="fill:#76c8fb; stroke:none;" d="M375 482L376 483L375 482M139 483L140 484L139 483z"/>
<path style="fill:#239ff2; stroke:none;" d="M353 483L354 484L353 483M372 483L373 484L372 483z"/>
<path style="fill:#76c8fb; stroke:none;" d="M373 483L374 484L373 483M141 484L142 485L141 484z"/>
<path style="fill:#239ff2; stroke:none;" d="M370 484L371 485L370 484z"/>
<path style="fill:#76c8fb; stroke:none;" d="M371 484L372 485L371 484M143 485L144 486L143 485M369 485L370 486L369 485M144.667 486.333L145.333 486.667L144.667 486.333z"/>
<path style="fill:#239ff2; stroke:none;" d="M366 486L367 487L366 486z"/>
<path style="fill:#76c8fb; stroke:none;" d="M367 486L368 487L367 486M147 487L148 488L147 487M365 487L366 488L365 487M149 488L149 489L153 490L153 489L149 488z"/>
<path style="fill:#239ff2; stroke:none;" d="M351.667 488.333L352.333 488.667L351.667 488.333M356.667 488.333L357.333 488.667L356.667 488.333z"/>
<path style="fill:#76c8fb; stroke:none;" d="M363 488L364 489L363 488z"/>
<path style="fill:#239ff2; stroke:none;" d="M347 491L350 491L349 489L347 491M354 489L355 490L354 489z"/>
<path style="fill:#76c8fb; stroke:none;" d="M360 489L361 490L360 489M154 490L155 491L154 490z"/>
<path style="fill:#239ff2; stroke:none;" d="M352 490L353 491L352 490z"/>
<path style="fill:#76c8fb; stroke:none;" d="M358 490L359 491L358 490M156 491L157 492L156 491z"/>
<path style="fill:#239ff2; stroke:none;" d="M344 491L344 492L348 493L348 492L344 491M355 491L356 492L355 491z"/>
<path style="fill:#76c8fb; stroke:none;" d="M356 491L357 492L356 491M158 492L158 493L165 495L165 494L158 492z"/>
<path style="fill:#239ff2; stroke:none;" d="M342 492L343 493L342 492z"/>
<path style="fill:#76c8fb; stroke:none;" d="M353.667 492.333L354.333 492.667L353.667 492.333z"/>
<path style="fill:#239ff2; stroke:none;" d="M344 493L345 494L344 493M350 493L351 494L350 493z"/>
<path style="fill:#76c8fb; stroke:none;" d="M351 493L352 494L351 493M348.667 494.333L349.333 494.667L348.667 494.333M166 495L167 496L166 495M346 495L347 496L346 495M168.667 496.333L169.333 496.667L168.667 496.333z"/>
<path style="fill:#239ff2; stroke:none;" d="M320 496L321 497L320 496M328 496L329 497L328 496z"/>
<path style="fill:#76c8fb; stroke:none;" d="M343 496L344 497L343 496M171.667 497.333L172.333 497.667L171.667 497.333M340.667 497.333L341.333 497.667L340.667 497.333M174.667 498.333L175.333 498.667L174.667 498.333z"/>
<path style="fill:#239ff2; stroke:none;" d="M280.333 498.667L280.667 499.333L280.333 498.667M285 498L285 500L287 500L287 498L285 498M305 498L306 499L305 498M326 499L326 500L331 499L326 499z"/>
<path style="fill:#76c8fb; stroke:none;" d="M337 498L338 499L337 498M177.667 499.333L178.333 499.667L177.667 499.333z"/>
<path style="fill:#239ff2; stroke:none;" d="M320 499L321 500L320 499z"/>
<path style="fill:#76c8fb; stroke:none;" d="M334.667 499.333L335.333 499.667L334.667 499.333M180.667 500.333L181.333 500.667L180.667 500.333z"/>
<path style="fill:#239ff2; stroke:none;" d="M322.667 500.333L323.333 500.667L322.667 500.333z"/>
<path style="fill:#76c8fb; stroke:none;" d="M331 500L332 501L331 500M184.667 501.333L185.333 501.667L184.667 501.333M328 501L329 502L328 501M187.667 502.333L188.333 502.667L187.667 502.333M324.667 502.333L325.333 502.667L324.667 502.333M190.667 503.333L191.333 503.667L190.667 503.333M320.667 503.333L321.333 503.667L320.667 503.333M195.667 504.333L196.333 504.667L195.667 504.333z"/>
<path style="fill:#239ff2; stroke:none;" d="M277 504L278 505L277 504M279 504L280 505L279 504M316 504L317 505L316 504z"/>
<path style="fill:#76c8fb; stroke:none;" d="M317 504L318 505L317 504M198 505L198 506L201 506L198 505M312.667 505.333L313.333 505.667L312.667 505.333M203 506L203 507L206 507L203 506z"/>
<path style="fill:#239ff2; stroke:none;" d="M264 506L264 507L267 507L264 506M276 506L276 507L283 507L276 506M288 506L288 507L291 507L288 506z"/>
<path style="fill:#76c8fb; stroke:none;" d="M307.667 506.333L308.333 506.667L307.667 506.333M208 507L208 508L212 508L208 507z"/>
<path style="fill:#239ff2; stroke:none;" d="M302 507L303 508L302 507z"/>
<path style="fill:#76c8fb; stroke:none;" d="M303 507L304 508L303 507M214.667 508.333L215.333 508.667L214.667 508.333z"/>
<path style="fill:#239ff2; stroke:none;" d="M265 508L266 509L265 508M270 508L270 509L276 509L270 508M277.667 508.333L278.333 508.667L277.667 508.333M296 508L297 509L296 508z"/>
<path style="fill:#76c8fb; stroke:none;" d="M297.667 508.333L298.333 508.667L297.667 508.333M220 509L220 510L224 510L220 509M290.667 509.333L291.333 509.667L290.667 509.333M229 510L229 511L235 511L229 510M281 510L281 511L284 511L281 510M240 511L240 512L248 512L240 511M268 511L268 512L274 512L268 511z"/>
</svg>
